<mxfile host="Electron" modified="2024-10-21T23:16:22.239Z" agent="Mozilla/5.0 (Windows NT 10.0; Win64; x64) AppleWebKit/537.36 (KHTML, like Gecko) draw.io/21.6.8 Chrome/114.0.5735.289 Electron/25.5.0 Safari/537.36" etag="WbXhL6PhmmsnTdWHnq73" version="21.6.8" type="device">
  <diagram id="C5RBs43oDa-KdzZeNtuy" name="Page-1">
    <mxGraphModel dx="490" dy="844" grid="1" gridSize="10" guides="1" tooltips="1" connect="1" arrows="1" fold="1" page="1" pageScale="1" pageWidth="827" pageHeight="1169" math="0" shadow="0">
      <root>
        <mxCell id="WIyWlLk6GJQsqaUBKTNV-0" />
        <mxCell id="WIyWlLk6GJQsqaUBKTNV-1" parent="WIyWlLk6GJQsqaUBKTNV-0" />
        <mxCell id="BE57soRf-F5m6Kqrdatr-7" style="edgeStyle=orthogonalEdgeStyle;rounded=0;orthogonalLoop=1;jettySize=auto;html=1;exitX=0.5;exitY=1;exitDx=0;exitDy=0;entryX=0.5;entryY=0;entryDx=0;entryDy=0;" edge="1" parent="WIyWlLk6GJQsqaUBKTNV-1" source="BE57soRf-F5m6Kqrdatr-0" target="BE57soRf-F5m6Kqrdatr-2">
          <mxGeometry relative="1" as="geometry" />
        </mxCell>
        <mxCell id="BE57soRf-F5m6Kqrdatr-0" value="" style="ellipse;whiteSpace=wrap;html=1;aspect=fixed;" vertex="1" parent="WIyWlLk6GJQsqaUBKTNV-1">
          <mxGeometry x="110" y="20" width="80" height="80" as="geometry" />
        </mxCell>
        <mxCell id="BE57soRf-F5m6Kqrdatr-1" value="Inicio" style="text;html=1;strokeColor=none;fillColor=none;align=center;verticalAlign=middle;whiteSpace=wrap;rounded=0;" vertex="1" parent="WIyWlLk6GJQsqaUBKTNV-1">
          <mxGeometry x="120" y="45" width="60" height="30" as="geometry" />
        </mxCell>
        <mxCell id="BE57soRf-F5m6Kqrdatr-40" style="edgeStyle=orthogonalEdgeStyle;rounded=0;orthogonalLoop=1;jettySize=auto;html=1;exitX=0.5;exitY=1;exitDx=0;exitDy=0;entryX=0.5;entryY=0;entryDx=0;entryDy=0;" edge="1" parent="WIyWlLk6GJQsqaUBKTNV-1" source="BE57soRf-F5m6Kqrdatr-2" target="BE57soRf-F5m6Kqrdatr-8">
          <mxGeometry relative="1" as="geometry" />
        </mxCell>
        <mxCell id="BE57soRf-F5m6Kqrdatr-2" value="" style="rounded=1;whiteSpace=wrap;html=1;fillColor=#dae8fc;strokeColor=#6c8ebf;" vertex="1" parent="WIyWlLk6GJQsqaUBKTNV-1">
          <mxGeometry x="30" y="140" width="240" height="120" as="geometry" />
        </mxCell>
        <mxCell id="BE57soRf-F5m6Kqrdatr-6" value="&lt;div&gt;Definir Tipo cambio EUR a MXN = 23.70&lt;/div&gt;&lt;div&gt;Definir Tipo cambio USD a MXN = 20.75&lt;/div&gt;" style="text;html=1;strokeColor=none;fillColor=none;align=center;verticalAlign=middle;whiteSpace=wrap;rounded=0;" vertex="1" parent="WIyWlLk6GJQsqaUBKTNV-1">
          <mxGeometry x="30" y="185" width="240" height="30" as="geometry" />
        </mxCell>
        <mxCell id="BE57soRf-F5m6Kqrdatr-41" style="edgeStyle=orthogonalEdgeStyle;rounded=0;orthogonalLoop=1;jettySize=auto;html=1;exitX=0.5;exitY=1;exitDx=0;exitDy=0;entryX=0.5;entryY=0;entryDx=0;entryDy=0;" edge="1" parent="WIyWlLk6GJQsqaUBKTNV-1" source="BE57soRf-F5m6Kqrdatr-8" target="BE57soRf-F5m6Kqrdatr-12">
          <mxGeometry relative="1" as="geometry" />
        </mxCell>
        <mxCell id="BE57soRf-F5m6Kqrdatr-8" value="" style="shape=parallelogram;perimeter=parallelogramPerimeter;whiteSpace=wrap;html=1;fixedSize=1;fillColor=#fff2cc;strokeColor=#d6b656;" vertex="1" parent="WIyWlLk6GJQsqaUBKTNV-1">
          <mxGeometry x="60" y="300" width="180" height="80" as="geometry" />
        </mxCell>
        <mxCell id="BE57soRf-F5m6Kqrdatr-9" value="Mostrar mensaje: &quot;Ingrese la moneda origen para la conversión (EUR/USD): &quot;" style="text;html=1;strokeColor=none;fillColor=none;align=center;verticalAlign=middle;whiteSpace=wrap;rounded=0;" vertex="1" parent="WIyWlLk6GJQsqaUBKTNV-1">
          <mxGeometry x="80" y="325" width="140" height="30" as="geometry" />
        </mxCell>
        <mxCell id="BE57soRf-F5m6Kqrdatr-10" value="" style="rhombus;whiteSpace=wrap;html=1;" vertex="1" parent="WIyWlLk6GJQsqaUBKTNV-1">
          <mxGeometry x="60" y="540" width="180" height="160" as="geometry" />
        </mxCell>
        <mxCell id="BE57soRf-F5m6Kqrdatr-11" value="Mostrar mensaje: &quot;Ingrese monto a convertir:&quot;" style="text;html=1;strokeColor=none;fillColor=none;align=center;verticalAlign=middle;whiteSpace=wrap;rounded=0;" vertex="1" parent="WIyWlLk6GJQsqaUBKTNV-1">
          <mxGeometry x="90" y="605" width="120" height="30" as="geometry" />
        </mxCell>
        <mxCell id="BE57soRf-F5m6Kqrdatr-17" style="edgeStyle=orthogonalEdgeStyle;rounded=0;orthogonalLoop=1;jettySize=auto;html=1;exitX=0.5;exitY=1;exitDx=0;exitDy=0;entryX=0.5;entryY=0;entryDx=0;entryDy=0;" edge="1" parent="WIyWlLk6GJQsqaUBKTNV-1" source="BE57soRf-F5m6Kqrdatr-12" target="BE57soRf-F5m6Kqrdatr-14">
          <mxGeometry relative="1" as="geometry" />
        </mxCell>
        <mxCell id="BE57soRf-F5m6Kqrdatr-12" value="" style="shape=parallelogram;perimeter=parallelogramPerimeter;whiteSpace=wrap;html=1;fixedSize=1;fillColor=#fff2cc;strokeColor=#d6b656;" vertex="1" parent="WIyWlLk6GJQsqaUBKTNV-1">
          <mxGeometry x="60" y="420" width="180" height="80" as="geometry" />
        </mxCell>
        <mxCell id="BE57soRf-F5m6Kqrdatr-20" style="edgeStyle=orthogonalEdgeStyle;rounded=0;orthogonalLoop=1;jettySize=auto;html=1;exitX=1;exitY=0.5;exitDx=0;exitDy=0;entryX=0;entryY=0.5;entryDx=0;entryDy=0;" edge="1" parent="WIyWlLk6GJQsqaUBKTNV-1" source="BE57soRf-F5m6Kqrdatr-14" target="BE57soRf-F5m6Kqrdatr-18">
          <mxGeometry relative="1" as="geometry" />
        </mxCell>
        <mxCell id="BE57soRf-F5m6Kqrdatr-38" style="edgeStyle=orthogonalEdgeStyle;rounded=0;orthogonalLoop=1;jettySize=auto;html=1;exitX=0.5;exitY=1;exitDx=0;exitDy=0;entryX=0.5;entryY=0;entryDx=0;entryDy=0;" edge="1" parent="WIyWlLk6GJQsqaUBKTNV-1" source="BE57soRf-F5m6Kqrdatr-14" target="BE57soRf-F5m6Kqrdatr-30">
          <mxGeometry relative="1" as="geometry" />
        </mxCell>
        <mxCell id="BE57soRf-F5m6Kqrdatr-14" value="" style="rhombus;whiteSpace=wrap;html=1;fillColor=#d5e8d4;strokeColor=#82b366;" vertex="1" parent="WIyWlLk6GJQsqaUBKTNV-1">
          <mxGeometry x="60" y="540" width="180" height="160" as="geometry" />
        </mxCell>
        <mxCell id="BE57soRf-F5m6Kqrdatr-15" value="Mostrar mensaje: &quot;Ingrese monto a convertir:&quot;" style="text;html=1;strokeColor=none;fillColor=none;align=center;verticalAlign=middle;whiteSpace=wrap;rounded=0;" vertex="1" parent="WIyWlLk6GJQsqaUBKTNV-1">
          <mxGeometry x="70" y="445" width="160" height="30" as="geometry" />
        </mxCell>
        <mxCell id="BE57soRf-F5m6Kqrdatr-16" value="tipo_conversion == &quot;EUR&quot;" style="text;html=1;strokeColor=none;fillColor=none;align=center;verticalAlign=middle;whiteSpace=wrap;rounded=0;" vertex="1" parent="WIyWlLk6GJQsqaUBKTNV-1">
          <mxGeometry x="70" y="605" width="160" height="30" as="geometry" />
        </mxCell>
        <mxCell id="BE57soRf-F5m6Kqrdatr-24" style="edgeStyle=orthogonalEdgeStyle;rounded=0;orthogonalLoop=1;jettySize=auto;html=1;exitX=1;exitY=0.5;exitDx=0;exitDy=0;" edge="1" parent="WIyWlLk6GJQsqaUBKTNV-1" source="BE57soRf-F5m6Kqrdatr-18" target="BE57soRf-F5m6Kqrdatr-21">
          <mxGeometry relative="1" as="geometry" />
        </mxCell>
        <mxCell id="BE57soRf-F5m6Kqrdatr-18" value="" style="rounded=1;whiteSpace=wrap;html=1;fillColor=#dae8fc;strokeColor=#6c8ebf;" vertex="1" parent="WIyWlLk6GJQsqaUBKTNV-1">
          <mxGeometry x="288" y="560" width="232" height="120" as="geometry" />
        </mxCell>
        <mxCell id="BE57soRf-F5m6Kqrdatr-19" value="Calcular resultado = monto a convertir * tipo cambio EUR a MXN" style="text;html=1;strokeColor=none;fillColor=none;align=center;verticalAlign=middle;whiteSpace=wrap;rounded=0;" vertex="1" parent="WIyWlLk6GJQsqaUBKTNV-1">
          <mxGeometry x="308" y="590" width="192" height="60" as="geometry" />
        </mxCell>
        <mxCell id="BE57soRf-F5m6Kqrdatr-51" style="edgeStyle=orthogonalEdgeStyle;rounded=0;orthogonalLoop=1;jettySize=auto;html=1;exitX=1;exitY=0.5;exitDx=0;exitDy=0;entryX=0.5;entryY=0;entryDx=0;entryDy=0;" edge="1" parent="WIyWlLk6GJQsqaUBKTNV-1" source="BE57soRf-F5m6Kqrdatr-21" target="BE57soRf-F5m6Kqrdatr-46">
          <mxGeometry relative="1" as="geometry">
            <Array as="points">
              <mxPoint x="780" y="620" />
              <mxPoint x="780" y="1040" />
              <mxPoint x="150" y="1040" />
            </Array>
          </mxGeometry>
        </mxCell>
        <mxCell id="BE57soRf-F5m6Kqrdatr-21" value="" style="shape=parallelogram;perimeter=parallelogramPerimeter;whiteSpace=wrap;html=1;fixedSize=1;fillColor=#fff2cc;strokeColor=#d6b656;" vertex="1" parent="WIyWlLk6GJQsqaUBKTNV-1">
          <mxGeometry x="570" y="580" width="160" height="80" as="geometry" />
        </mxCell>
        <mxCell id="BE57soRf-F5m6Kqrdatr-22" value="Mostrar &quot;El resultado de la conversión de EUR a MXN es: &quot;, resultado" style="text;html=1;strokeColor=none;fillColor=none;align=center;verticalAlign=middle;whiteSpace=wrap;rounded=0;" vertex="1" parent="WIyWlLk6GJQsqaUBKTNV-1">
          <mxGeometry x="590" y="605" width="120" height="30" as="geometry" />
        </mxCell>
        <mxCell id="BE57soRf-F5m6Kqrdatr-25" value="Si" style="text;html=1;strokeColor=none;fillColor=none;align=center;verticalAlign=middle;whiteSpace=wrap;rounded=0;" vertex="1" parent="WIyWlLk6GJQsqaUBKTNV-1">
          <mxGeometry x="240" y="605" width="40" height="10" as="geometry" />
        </mxCell>
        <mxCell id="BE57soRf-F5m6Kqrdatr-27" value="" style="rhombus;whiteSpace=wrap;html=1;" vertex="1" parent="WIyWlLk6GJQsqaUBKTNV-1">
          <mxGeometry x="60" y="740" width="180" height="160" as="geometry" />
        </mxCell>
        <mxCell id="BE57soRf-F5m6Kqrdatr-28" value="Mostrar mensaje: &quot;Ingrese monto a convertir:&quot;" style="text;html=1;strokeColor=none;fillColor=none;align=center;verticalAlign=middle;whiteSpace=wrap;rounded=0;" vertex="1" parent="WIyWlLk6GJQsqaUBKTNV-1">
          <mxGeometry x="90" y="805" width="120" height="30" as="geometry" />
        </mxCell>
        <mxCell id="BE57soRf-F5m6Kqrdatr-29" style="edgeStyle=orthogonalEdgeStyle;rounded=0;orthogonalLoop=1;jettySize=auto;html=1;exitX=1;exitY=0.5;exitDx=0;exitDy=0;entryX=0;entryY=0.5;entryDx=0;entryDy=0;" edge="1" parent="WIyWlLk6GJQsqaUBKTNV-1" source="BE57soRf-F5m6Kqrdatr-30" target="BE57soRf-F5m6Kqrdatr-33">
          <mxGeometry relative="1" as="geometry" />
        </mxCell>
        <mxCell id="BE57soRf-F5m6Kqrdatr-44" style="edgeStyle=orthogonalEdgeStyle;rounded=0;orthogonalLoop=1;jettySize=auto;html=1;exitX=0.5;exitY=1;exitDx=0;exitDy=0;entryX=0.5;entryY=0;entryDx=0;entryDy=0;" edge="1" parent="WIyWlLk6GJQsqaUBKTNV-1" source="BE57soRf-F5m6Kqrdatr-30" target="BE57soRf-F5m6Kqrdatr-42">
          <mxGeometry relative="1" as="geometry" />
        </mxCell>
        <mxCell id="BE57soRf-F5m6Kqrdatr-30" value="" style="rhombus;whiteSpace=wrap;html=1;fillColor=#d5e8d4;strokeColor=#82b366;" vertex="1" parent="WIyWlLk6GJQsqaUBKTNV-1">
          <mxGeometry x="60" y="740" width="180" height="160" as="geometry" />
        </mxCell>
        <mxCell id="BE57soRf-F5m6Kqrdatr-31" value="tipo_conversion == &quot;USD&quot;" style="text;html=1;strokeColor=none;fillColor=none;align=center;verticalAlign=middle;whiteSpace=wrap;rounded=0;" vertex="1" parent="WIyWlLk6GJQsqaUBKTNV-1">
          <mxGeometry x="70" y="805" width="160" height="30" as="geometry" />
        </mxCell>
        <mxCell id="BE57soRf-F5m6Kqrdatr-32" style="edgeStyle=orthogonalEdgeStyle;rounded=0;orthogonalLoop=1;jettySize=auto;html=1;exitX=1;exitY=0.5;exitDx=0;exitDy=0;" edge="1" parent="WIyWlLk6GJQsqaUBKTNV-1" source="BE57soRf-F5m6Kqrdatr-33" target="BE57soRf-F5m6Kqrdatr-35">
          <mxGeometry relative="1" as="geometry" />
        </mxCell>
        <mxCell id="BE57soRf-F5m6Kqrdatr-33" value="" style="rounded=1;whiteSpace=wrap;html=1;fillColor=#dae8fc;strokeColor=#6c8ebf;" vertex="1" parent="WIyWlLk6GJQsqaUBKTNV-1">
          <mxGeometry x="288" y="760" width="232" height="120" as="geometry" />
        </mxCell>
        <mxCell id="BE57soRf-F5m6Kqrdatr-34" value="Calcular resultado = monto a convertir * tipo cambio USD a MXN" style="text;html=1;strokeColor=none;fillColor=none;align=center;verticalAlign=middle;whiteSpace=wrap;rounded=0;" vertex="1" parent="WIyWlLk6GJQsqaUBKTNV-1">
          <mxGeometry x="308" y="790" width="192" height="60" as="geometry" />
        </mxCell>
        <mxCell id="BE57soRf-F5m6Kqrdatr-52" style="edgeStyle=orthogonalEdgeStyle;rounded=0;orthogonalLoop=1;jettySize=auto;html=1;entryX=0.5;entryY=0;entryDx=0;entryDy=0;exitX=1;exitY=0.5;exitDx=0;exitDy=0;" edge="1" parent="WIyWlLk6GJQsqaUBKTNV-1" source="BE57soRf-F5m6Kqrdatr-35" target="BE57soRf-F5m6Kqrdatr-46">
          <mxGeometry relative="1" as="geometry">
            <mxPoint x="640" y="860" as="sourcePoint" />
            <Array as="points">
              <mxPoint x="780" y="820" />
              <mxPoint x="780" y="1040" />
              <mxPoint x="150" y="1040" />
            </Array>
          </mxGeometry>
        </mxCell>
        <mxCell id="BE57soRf-F5m6Kqrdatr-35" value="" style="shape=parallelogram;perimeter=parallelogramPerimeter;whiteSpace=wrap;html=1;fixedSize=1;fillColor=#fff2cc;strokeColor=#d6b656;" vertex="1" parent="WIyWlLk6GJQsqaUBKTNV-1">
          <mxGeometry x="570" y="780" width="160" height="80" as="geometry" />
        </mxCell>
        <mxCell id="BE57soRf-F5m6Kqrdatr-36" value="Mostrar &quot;El resultado de la conversión de USD a MXN es: &quot;, resultado" style="text;html=1;strokeColor=none;fillColor=none;align=center;verticalAlign=middle;whiteSpace=wrap;rounded=0;" vertex="1" parent="WIyWlLk6GJQsqaUBKTNV-1">
          <mxGeometry x="590" y="805" width="120" height="30" as="geometry" />
        </mxCell>
        <mxCell id="BE57soRf-F5m6Kqrdatr-37" value="Si" style="text;html=1;strokeColor=none;fillColor=none;align=center;verticalAlign=middle;whiteSpace=wrap;rounded=0;" vertex="1" parent="WIyWlLk6GJQsqaUBKTNV-1">
          <mxGeometry x="240" y="805" width="40" height="10" as="geometry" />
        </mxCell>
        <mxCell id="BE57soRf-F5m6Kqrdatr-39" value="No" style="text;html=1;strokeColor=none;fillColor=none;align=center;verticalAlign=middle;whiteSpace=wrap;rounded=0;" vertex="1" parent="WIyWlLk6GJQsqaUBKTNV-1">
          <mxGeometry x="150" y="710" width="40" height="20" as="geometry" />
        </mxCell>
        <mxCell id="BE57soRf-F5m6Kqrdatr-50" style="edgeStyle=orthogonalEdgeStyle;rounded=0;orthogonalLoop=1;jettySize=auto;html=1;exitX=0.5;exitY=1;exitDx=0;exitDy=0;entryX=0.5;entryY=0;entryDx=0;entryDy=0;" edge="1" parent="WIyWlLk6GJQsqaUBKTNV-1" source="BE57soRf-F5m6Kqrdatr-42" target="BE57soRf-F5m6Kqrdatr-46">
          <mxGeometry relative="1" as="geometry" />
        </mxCell>
        <mxCell id="BE57soRf-F5m6Kqrdatr-42" value="" style="shape=parallelogram;perimeter=parallelogramPerimeter;whiteSpace=wrap;html=1;fixedSize=1;fillColor=#fff2cc;strokeColor=#d6b656;" vertex="1" parent="WIyWlLk6GJQsqaUBKTNV-1">
          <mxGeometry x="60" y="940" width="180" height="80" as="geometry" />
        </mxCell>
        <mxCell id="BE57soRf-F5m6Kqrdatr-43" value="Mostrar: &quot;No esta disponible este tipo de conversión actualmente&quot;" style="text;html=1;strokeColor=none;fillColor=none;align=center;verticalAlign=middle;whiteSpace=wrap;rounded=0;" vertex="1" parent="WIyWlLk6GJQsqaUBKTNV-1">
          <mxGeometry x="70" y="965" width="160" height="30" as="geometry" />
        </mxCell>
        <mxCell id="BE57soRf-F5m6Kqrdatr-45" value="No" style="text;html=1;strokeColor=none;fillColor=none;align=center;verticalAlign=middle;whiteSpace=wrap;rounded=0;" vertex="1" parent="WIyWlLk6GJQsqaUBKTNV-1">
          <mxGeometry x="150" y="910" width="40" height="20" as="geometry" />
        </mxCell>
        <mxCell id="BE57soRf-F5m6Kqrdatr-46" value="" style="ellipse;whiteSpace=wrap;html=1;aspect=fixed;" vertex="1" parent="WIyWlLk6GJQsqaUBKTNV-1">
          <mxGeometry x="110" y="1060" width="80" height="80" as="geometry" />
        </mxCell>
        <mxCell id="BE57soRf-F5m6Kqrdatr-47" value="Fin" style="text;html=1;strokeColor=none;fillColor=none;align=center;verticalAlign=middle;whiteSpace=wrap;rounded=0;" vertex="1" parent="WIyWlLk6GJQsqaUBKTNV-1">
          <mxGeometry x="120" y="1085" width="60" height="30" as="geometry" />
        </mxCell>
      </root>
    </mxGraphModel>
  </diagram>
</mxfile>
